<svg width="233" height="44" viewBox="0 0 233 44" fill="none" xmlns="http://www.w3.org/2000/svg">
<g clip-path="url(#clip0_623_2)">
<path d="M18.9697 4.37494C33.2733 1.04805 42.1813 4.17976 42.1813 4.17976L51.9931 0.90576C51.9931 0.874279 51.9931 0.841539 51.9931 0.810059C51.3725 0.606064 38.9484 -2.31913 18.9697 4.37494Z" fill="#E3EEFF"/>
<path d="M18.9703 4.37472C13.2348 6.29631 6.87861 9.01121 0 12.8116C10.1832 9.94052 18.8205 8.38789 29.4003 8.44707L42.1819 4.17954C42.1819 4.17954 33.2739 1.04784 18.9703 4.37472Z" fill="#E3EEFF"/>
<path d="M12.832 39.8928C41.6608 26.3662 51.5557 7.78249 51.9938 0.90332L42.182 4.17732C42.182 4.17732 43.4874 19.7263 12.832 39.8928Z" fill="#E3EEFF"/>
<path d="M3.02734 43.999C6.51617 42.7012 9.78426 41.3324 12.8316 39.8927C43.487 19.7261 42.1816 4.17969 42.1816 4.17969L29.4 8.45351C29.0676 17.8234 23.0123 27.9716 3.02734 44.0053" fill="#E3EEFF"/>
</g>
<path d="M78.44 21.7C79.2933 21.9533 79.9467 22.3667 80.4 22.94C80.8533 23.5133 81.08 24.22 81.08 25.06C81.08 26.3 80.6067 27.2667 79.66 27.96C78.7267 28.6533 77.3867 29 75.64 29H68.74V15H75.26C76.8867 15 78.1533 15.3133 79.06 15.94C79.9667 16.5667 80.42 17.46 80.42 18.62C80.42 19.3133 80.2467 19.9267 79.9 20.46C79.5533 20.98 79.0667 21.3933 78.44 21.7ZM71.96 20.8H74.98C75.6867 20.8 76.22 20.66 76.58 20.38C76.94 20.0867 77.12 19.66 77.12 19.1C77.12 18.5533 76.9333 18.1333 76.56 17.84C76.2 17.5467 75.6733 17.4 74.98 17.4H71.96V20.8ZM75.52 26.6C77.04 26.6 77.8 26 77.8 24.8C77.8 23.64 77.04 23.06 75.52 23.06H71.96V26.6H75.52ZM90.2623 29.24C88.8357 29.24 87.5423 28.9333 86.3823 28.32C85.2357 27.6933 84.329 26.8333 83.6623 25.74C83.009 24.6333 82.6823 23.3867 82.6823 22C82.6823 20.6133 83.009 19.3733 83.6623 18.28C84.329 17.1733 85.2357 16.3133 86.3823 15.7C87.5423 15.0733 88.8423 14.76 90.2823 14.76C91.4957 14.76 92.589 14.9733 93.5623 15.4C94.549 15.8267 95.3757 16.44 96.0423 17.24L93.9623 19.16C93.0157 18.0667 91.8423 17.52 90.4423 17.52C89.5757 17.52 88.8023 17.7133 88.1223 18.1C87.4423 18.4733 86.909 19 86.5223 19.68C86.149 20.36 85.9623 21.1333 85.9623 22C85.9623 22.8667 86.149 23.64 86.5223 24.32C86.909 25 87.4423 25.5333 88.1223 25.92C88.8023 26.2933 89.5757 26.48 90.4423 26.48C91.8423 26.48 93.0157 25.9267 93.9623 24.82L96.0423 26.74C95.3757 27.5533 94.549 28.1733 93.5623 28.6C92.5757 29.0267 91.4757 29.24 90.2623 29.24ZM103.574 23.36H101.334V29H98.1141V15H101.334V20.66H103.654L107.334 15H110.754L106.174 21.76L110.894 29H107.214L103.574 23.36ZM123.005 14.76C124.392 14.76 125.632 15.0733 126.725 15.7C127.832 16.3133 128.698 17.1733 129.325 18.28C129.952 19.3733 130.265 20.6133 130.265 22C130.265 23.3867 129.952 24.6333 129.325 25.74C128.698 26.8333 127.832 27.6933 126.725 28.32C125.632 28.9333 124.392 29.24 123.005 29.24C121.765 29.24 120.645 29.0267 119.645 28.6C118.658 28.1733 117.832 27.5533 117.165 26.74L119.225 24.82C120.212 25.9267 121.418 26.48 122.845 26.48C123.872 26.48 124.738 26.18 125.445 25.58C126.165 24.98 126.632 24.1733 126.845 23.16H121.165V20.68H126.805C126.578 19.72 126.112 18.9533 125.405 18.38C124.698 17.8067 123.845 17.52 122.845 17.52C121.418 17.52 120.212 18.0733 119.225 19.18L117.165 17.26C117.832 16.4467 118.658 15.8267 119.645 15.4C120.645 14.9733 121.765 14.76 123.005 14.76ZM138.223 23.36H135.983V29H132.763V15H135.983V20.66H138.303L141.983 15H145.403L140.823 21.76L145.543 29H141.863L138.223 23.36ZM153.622 29.24C152.195 29.24 150.902 28.9333 149.742 28.32C148.595 27.6933 147.688 26.8333 147.022 25.74C146.368 24.6333 146.042 23.3867 146.042 22C146.042 20.6133 146.368 19.3733 147.022 18.28C147.688 17.1733 148.595 16.3133 149.742 15.7C150.902 15.0733 152.202 14.76 153.642 14.76C154.855 14.76 155.948 14.9733 156.922 15.4C157.908 15.8267 158.735 16.44 159.402 17.24L157.322 19.16C156.375 18.0667 155.202 17.52 153.802 17.52C152.935 17.52 152.162 17.7133 151.482 18.1C150.802 18.4733 150.268 19 149.882 19.68C149.508 20.36 149.322 21.1333 149.322 22C149.322 22.8667 149.508 23.64 149.882 24.32C150.268 25 150.802 25.5333 151.482 25.92C152.162 26.2933 152.935 26.48 153.802 26.48C155.202 26.48 156.375 25.9267 157.322 24.82L159.402 26.74C158.735 27.5533 157.908 28.1733 156.922 28.6C155.935 29.0267 154.835 29.24 153.622 29.24ZM174.273 15V29H171.053V17.64H164.733V29H161.513V15H174.273ZM183.804 15C185.044 15 186.117 15.2067 187.024 15.62C187.944 16.0333 188.651 16.62 189.144 17.38C189.637 18.14 189.884 19.04 189.884 20.08C189.884 21.1067 189.637 22.0067 189.144 22.78C188.651 23.54 187.944 24.1267 187.024 24.54C186.117 24.94 185.044 25.14 183.804 25.14H180.984V29H177.744V15H183.804ZM183.624 22.5C184.597 22.5 185.337 22.2933 185.844 21.88C186.351 21.4533 186.604 20.8533 186.604 20.08C186.604 19.2933 186.351 18.6933 185.844 18.28C185.337 17.8533 184.597 17.64 183.624 17.64H180.984V22.5H183.624ZM202.861 26.4V29H192.021V15H202.601V17.6H195.241V20.64H201.741V23.16H195.241V26.4H202.861ZM212.059 29.24C210.633 29.24 209.339 28.9333 208.179 28.32C207.033 27.6933 206.126 26.8333 205.459 25.74C204.806 24.6333 204.479 23.3867 204.479 22C204.479 20.6133 204.806 19.3733 205.459 18.28C206.126 17.1733 207.033 16.3133 208.179 15.7C209.339 15.0733 210.639 14.76 212.079 14.76C213.293 14.76 214.386 14.9733 215.359 15.4C216.346 15.8267 217.173 16.44 217.839 17.24L215.759 19.16C214.813 18.0667 213.639 17.52 212.239 17.52C211.373 17.52 210.599 17.7133 209.919 18.1C209.239 18.4733 208.706 19 208.319 19.68C207.946 20.36 207.759 21.1333 207.759 22C207.759 22.8667 207.946 23.64 208.319 24.32C208.706 25 209.239 25.5333 209.919 25.92C210.599 26.2933 211.373 26.48 212.239 26.48C213.639 26.48 214.813 25.9267 215.759 24.82L217.839 26.74C217.173 27.5533 216.346 28.1733 215.359 28.6C214.373 29.0267 213.273 29.24 212.059 29.24ZM226.278 29.24C224.851 29.24 223.558 28.9333 222.398 28.32C221.251 27.6933 220.345 26.8333 219.678 25.74C219.025 24.6333 218.698 23.3867 218.698 22C218.698 20.6133 219.025 19.3733 219.678 18.28C220.345 17.1733 221.251 16.3133 222.398 15.7C223.558 15.0733 224.858 14.76 226.298 14.76C227.511 14.76 228.605 14.9733 229.578 15.4C230.565 15.8267 231.391 16.44 232.058 17.24L229.978 19.16C229.031 18.0667 227.858 17.52 226.458 17.52C225.591 17.52 224.818 17.7133 224.138 18.1C223.458 18.4733 222.925 19 222.538 19.68C222.165 20.36 221.978 21.1333 221.978 22C221.978 22.8667 222.165 23.64 222.538 24.32C222.925 25 223.458 25.5333 224.138 25.92C224.818 26.2933 225.591 26.48 226.458 26.48C227.858 26.48 229.031 25.9267 229.978 24.82L232.058 26.74C231.391 27.5533 230.565 28.1733 229.578 28.6C228.591 29.0267 227.491 29.24 226.278 29.24Z" fill="white"/>
<defs>
<clipPath id="clip0_623_2">
<rect width="52" height="44" fill="white"/>
</clipPath>
</defs>
</svg>
